<?xml version="1.0" encoding="utf-8"?>
<!-- Generator: Adobe Illustrator 23.0.5, SVG Export Plug-In . SVG Version: 6.00 Build 0)  -->
<svg version="1.1" id="Capa_1" xmlns="http://www.w3.org/2000/svg" xmlns:xlink="http://www.w3.org/1999/xlink" x="0px" y="0px"
	 viewBox="0 0 512 512" style="enable-background:new 0 0 512 512;" xml:space="preserve">
<style type="text/css">
	.st0{fill:#D500F9;}
	.st1{font-family:'Flegrei-Regular';}
	.st2{font-size:68.9542px;}
</style>
<g>
	<g>
		<path class="st0" d="M107.8,181.7c-29.8,0-53.9,18.8-53.9,42c0,23.2,24.1,42,53.9,42s53.9-18.8,53.9-42
			C161.7,200.5,137.6,181.7,107.8,181.7z M133.5,227.1l-32.1,17.3c-0.9,0.5-2,0.7-3,0.7c-0.9,0-1.7-0.2-2.4-0.5
			c-1.7-0.7-2.8-2.1-2.8-3.6v-34.6c0-1.5,1.1-2.9,2.8-3.6c1.7-0.7,3.8-0.6,5.4,0.2l32.1,17.3c1.4,0.7,2.3,2,2.3,3.4
			S135,226.3,133.5,227.1z"/>
	</g>
	
		<ellipse transform="matrix(0.9993 -3.652539e-02 3.652539e-02 0.9993 -9.6414 2.5487)" class="st0" cx="64.9" cy="265.2" rx="16.8" ry="58.3"/>
</g>
<text transform="matrix(0.8806 0 0 1 149.4102 305.9272)" class="st1 st2">layvideo</text>
</svg>
